<?xml version="1.0" encoding="UTF-8" standalone="no"?>
<svg width="125px" height="113px" viewBox="0 0 125 113" version="1.1" xmlns="http://www.w3.org/2000/svg" xmlns:xlink="http://www.w3.org/1999/xlink" xmlns:sketch="http://www.bohemiancoding.com/sketch/ns">
    <!-- Generator: Sketch 3.3.1 (12002) - http://www.bohemiancoding.com/sketch -->
    <title>group58</title>
    <desc>Created with Sketch.</desc>
    <defs></defs>
    <g id="Page-1" stroke="none" stroke-width="1" fill="none" fill-rule="evenodd" sketch:type="MSPage">
        <g id="group58" sketch:type="MSLayerGroup" fill="#D5D5D5">
            <g id="Group" sketch:type="MSShapeGroup">
                <path d="M63.643,25.73 L61.846,27.371 L59.476,25.139 C58.984,25.056 58.502,24.951 58.031,24.816 C57.052,25.26 55.885,25.865 54.679,26.577 C54.767,26.058 54.763,25.533 54.66,25.022 C55.196,24.71 55.724,24.422 56.241,24.15 C53.475,22.885 51.235,20.681 49.917,17.943 C49.188,18.387 48.473,18.84 47.791,19.302 C46.793,18.73 45.832,18.185 45.075,17.757 C43.8,20.519 41.589,22.753 38.846,24.06 C41.091,25.227 46.552,28.253 48.069,29.324 C48.401,29.556 48.759,29.717 49.126,29.844 L49.126,51.964 C49.126,53.864 49.431,55.673 50.001,57.324 C49.985,57.499 49.974,57.677 49.974,57.857 L49.974,62.824 L50.007,62.824 C50.005,62.896 49.986,62.964 49.986,63.036 L49.988,106.721 C49.988,109.7 52.402,112.114 55.38,112.114 C58.358,112.114 60.771,109.701 60.771,106.721 L60.77,63.036 C60.77,62.963 60.751,62.896 60.749,62.824 L61.559,62.824 C61.557,62.896 61.538,62.963 61.538,63.035 L61.535,106.721 C61.535,109.7 63.949,112.114 66.926,112.114 L66.927,112.114 C69.904,112.114 72.318,109.701 72.318,106.723 L72.321,63.037 C72.321,62.964 72.302,62.896 72.3,62.825 L72.362,62.825 L72.367,57.181 C72.367,57.181 73.32,55.902 73.32,51.27 C73.32,48.783 73.573,39.505 73.573,39.505 L73.598,29.361 C73.541,29.333 65.881,25.135 65.881,25.135 L63.643,25.73 L63.643,25.73 Z" id="Shape"></path>
                <path d="M35.746,25.466 L33.376,27.283 L31.579,25.641 C27.653,27.431 22.933,29.66 22.869,29.691 C22.183,30.015 21.451,30.179 20.697,30.179 C19.862,30.179 19.056,29.96 18.338,29.583 L18.321,29.6 C13.78,25.956 9.993,19.649 8.666,16.933 C7.566,14.667 4.836,13.723 2.57,14.823 C0.303,15.924 -0.641,18.654 0.46,20.919 C1.264,22.576 8.641,37.201 19.77,40.685 C20.411,40.886 21.055,41.034 21.699,41.154 C21.772,43.958 21.906,49.37 21.906,51.185 C21.906,55.816 22.86,57.094 22.86,57.094 L22.864,62.74 L22.947,62.74 C22.945,62.813 22.926,62.883 22.926,62.957 L22.927,106.644 C22.927,109.622 25.341,112.036 28.319,112.036 C31.297,112.036 33.71,109.621 33.71,106.642 L33.709,62.957 C33.709,62.883 33.69,62.813 33.687,62.74 L34.499,62.74 C34.496,62.813 34.477,62.883 34.477,62.957 L34.474,106.642 C34.473,109.621 36.887,112.035 39.865,112.036 C42.843,112.036 45.257,109.622 45.257,106.644 L45.257,62.957 C45.257,62.883 45.238,62.814 45.236,62.74 L45.249,62.74 L45.249,57.773 C45.249,57.592 45.238,57.415 45.223,57.239 C45.793,55.588 46.098,53.778 46.098,51.879 L46.098,29.343 C44.16,29.499 38.322,25.262 37.605,24.936 C37.132,25.073 36.236,25.385 35.746,25.466 L35.746,25.466 Z" id="Shape"></path>
                <path d="M20.55,28.73 C21.157,28.73 21.775,28.599 22.359,28.321 C22.419,28.293 26.202,26.506 29.813,24.847 C26.586,23.951 23.868,21.843 22.17,19.041 C20.294,19.917 18.884,20.583 18.735,20.654 C16.617,21.655 15.712,24.182 16.711,26.3 C17.436,27.832 18.961,28.73 20.55,28.73 L20.55,28.73 Z" id="Shape"></path>
                <circle id="Oval" cx="61.848" cy="12.55" r="11.751"></circle>
                <circle id="Oval" cx="33.508" cy="12.55" r="11.751"></circle>
                <path d="M93.65,24.79 C97.298,26.465 101.168,28.293 101.229,28.321 C101.815,28.598 102.432,28.728 103.041,28.728 C104.628,28.728 106.15,27.832 106.875,26.299 C107.876,24.182 106.972,21.653 104.854,20.653 C104.695,20.578 103.162,19.853 101.148,18.914 C99.494,21.717 96.829,23.847 93.65,24.79 L93.65,24.79 Z" id="Shape"></path>
                <circle id="Oval" cx="90.188" cy="12.55" r="11.751"></circle>
                <path d="M122.35,13.903 C120.088,12.799 117.357,13.741 116.251,16.003 C114.79,18.994 110.355,26.327 105.212,29.677 C104.497,30.051 103.697,30.267 102.865,30.267 C102.11,30.267 101.378,30.102 100.692,29.779 C100.629,29.748 95.91,27.519 91.983,25.73 L90.186,27.371 L87.816,25.139 C87.325,25.056 86.841,24.951 86.372,24.816 C85.393,25.26 84.226,25.865 83.019,26.577 C83.108,26.058 83.103,25.533 83,25.022 C83.536,24.71 84.062,24.422 84.581,24.15 C81.814,22.885 79.574,20.681 78.257,17.943 C77.528,18.387 76.813,18.84 76.131,19.302 C75.133,18.73 74.172,18.185 73.415,17.757 C72.14,20.519 69.928,22.753 67.186,24.06 C69.43,25.227 74.892,28.253 76.409,29.324 C76.741,29.556 77.098,29.717 77.465,29.844 L77.465,51.964 C77.465,53.864 77.771,55.673 78.341,57.324 C78.325,57.499 78.314,57.677 78.314,57.857 L78.314,62.824 L78.347,62.824 C78.345,62.896 78.326,62.964 78.326,63.036 L78.328,106.721 C78.328,109.7 80.742,112.114 83.72,112.114 C86.699,112.114 89.111,109.701 89.111,106.721 L89.107,63.039 C89.107,62.966 89.088,62.898 89.086,62.827 L89.897,62.827 C89.895,62.898 89.876,62.966 89.876,63.038 L89.873,106.725 C89.873,109.703 92.287,112.117 95.264,112.117 L95.265,112.117 C98.243,112.117 100.657,109.704 100.657,106.727 L100.66,63.04 C100.66,62.967 100.64,62.9 100.639,62.828 L100.701,62.828 L100.705,57.183 C100.705,57.183 101.658,55.906 101.658,51.273 C101.658,49.262 101.822,42.816 101.886,40.42 C102.429,40.366 102.973,40.282 103.516,40.171 L103.558,40.189 C103.563,40.179 103.57,40.17 103.577,40.16 C104.1,40.051 104.626,39.925 105.148,39.761 C116.276,36.277 123.653,21.653 124.458,19.995 C125.556,17.731 124.611,15.006 122.35,13.903 L122.35,13.903 Z" id="Shape"></path>
            </g>
        </g>
    </g>
</svg>