<?xml version="1.0" encoding="UTF-8" standalone="no"?>
<svg width="185px" height="185px" viewBox="0 0 185 185" version="1.1" xmlns="http://www.w3.org/2000/svg" xmlns:xlink="http://www.w3.org/1999/xlink" xmlns:sketch="http://www.bohemiancoding.com/sketch/ns">
    <!-- Generator: Sketch 3.3.1 (12002) - http://www.bohemiancoding.com/sketch -->
    <title>info28</title>
    <desc>Created with Sketch.</desc>
    <defs></defs>
    <g id="Page-1" stroke="none" stroke-width="1" fill="none" fill-rule="evenodd" sketch:type="MSPage">
        <g id="info28" sketch:type="MSLayerGroup" fill="#D5D5D5">
            <path d="M92.0351667,0 C41.210125,0 0,41.210125 0,92.0351667 C0,142.860208 41.210125,184.078125 92.0351667,184.078125 C142.860208,184.078125 184.078125,142.860208 184.078125,92.0351667 C184.078125,41.210125 142.860208,0 92.0351667,0 L92.0351667,0 Z M111.194875,142.642042 C106.457542,144.512042 102.686375,145.930125 99.858,146.911875 C97.0374167,147.893625 93.757125,148.3845 90.0249167,148.3845 C84.29025,148.3845 79.825625,146.982 76.646625,144.184792 C73.467625,141.387583 71.8859167,137.842375 71.8859167,133.533583 C71.8859167,131.858375 72.0027917,130.144208 72.2365417,128.398875 C72.4780833,126.653542 72.859875,124.690042 73.3819167,122.485 L79.311375,101.541 C79.8334167,99.53075 80.2853333,97.6217917 80.64375,95.8452917 C81.0021667,94.0532083 81.1735833,92.4091667 81.1735833,90.9131667 C81.1735833,88.2484167 80.620375,86.3784167 79.52175,85.3265417 C78.4075417,84.2746667 76.3115833,83.7604167 73.187125,83.7604167 C71.6599583,83.7604167 70.0860417,83.986375 68.4731667,84.4616667 C66.875875,84.9525417 65.4889583,85.3966667 64.351375,85.833 L65.9175,79.3815 C69.79775,77.7997917 73.514375,76.4440417 77.0595833,75.3220417 C80.6047917,74.1844583 83.9552083,73.6234583 87.1108333,73.6234583 C92.8065417,73.6234583 97.2010417,75.010375 100.294333,77.7530417 C103.372042,80.5035 104.922583,84.079875 104.922583,88.474375 C104.922583,89.386 104.8135,90.9910833 104.603125,93.2818333 C104.39275,95.580375 103.995375,97.6763333 103.418792,99.600875 L97.5205,120.482542 C97.0374167,122.15775 96.608875,124.0745 96.2192917,126.217208 C95.8375,128.359917 95.6505,129.996167 95.6505,131.094792 C95.6505,133.868625 96.2660417,135.762 97.5127083,136.767125 C98.7437917,137.77225 100.902083,138.278708 103.956417,138.278708 C105.397875,138.278708 107.01075,138.021583 108.834,137.522917 C110.641667,137.02425 111.950667,136.580125 112.776583,136.198333 L111.194875,142.642042 L111.194875,142.642042 Z M110.150792,57.8842917 C107.400333,60.4399583 104.088875,61.7177917 100.216417,61.7177917 C96.35175,61.7177917 93.0169167,60.4399583 90.2430833,57.8842917 C87.4848333,55.328625 86.090125,52.21975 86.090125,48.5888333 C86.090125,44.9657083 87.492625,41.8490417 90.2430833,39.27 C93.0169167,36.6831667 96.35175,35.3975417 100.216417,35.3975417 C104.088875,35.3975417 107.408125,36.6831667 110.150792,39.27 C112.90125,41.8490417 114.280375,44.9657083 114.280375,48.5888333 C114.280375,52.2275417 112.90125,55.328625 110.150792,57.8842917 L110.150792,57.8842917 Z" id="Shape" sketch:type="MSShapeGroup"></path>
        </g>
    </g>
</svg>