<?xml version="1.0" encoding="UTF-8" standalone="no"?>
<svg width="174px" height="174px" viewBox="0 0 174 174" version="1.1" xmlns="http://www.w3.org/2000/svg" xmlns:xlink="http://www.w3.org/1999/xlink" xmlns:sketch="http://www.bohemiancoding.com/sketch/ns">
    <!-- Generator: Sketch 3.3.1 (12002) - http://www.bohemiancoding.com/sketch -->
    <title>news29</title>
    <desc>Created with Sketch.</desc>
    <defs></defs>
    <g id="Page-1" stroke="none" stroke-width="1" fill="none" fill-rule="evenodd" sketch:type="MSPage">
        <g id="news29" sketch:type="MSLayerGroup" fill="#D5D5D5">
            <g id="news" sketch:type="MSShapeGroup">
                <path d="M157.6875,0 L38.0625,0 C29.0525625,0 21.75,7.297125 21.75,16.3125 L21.75,27.1875 L16.3125,27.1875 C7.3025625,27.1875 0,34.484625 0,43.5 L0,152.25 C0,164.261437 9.7385625,174 21.75,174 L152.25,174 C164.261437,174 174,164.261437 174,152.25 L174,16.3125 C174,7.297125 166.692,0 157.6875,0 L157.6875,0 Z M163.125,152.25 C163.125,158.242125 158.242125,163.125 152.25,163.125 L21.75,163.125 C15.7524375,163.125 10.875,158.242125 10.875,152.25 L10.875,43.5 C10.875,40.4985 13.311,38.0625 16.3125,38.0625 L21.75,38.0625 L21.75,146.8125 C21.75,149.819437 24.1805625,152.25 27.1875,152.25 C30.1944375,152.25 32.625,149.819437 32.625,146.8125 L32.625,16.3125 C32.625,13.311 35.061,10.875 38.0625,10.875 L157.6875,10.875 C160.683562,10.875 163.125,13.311 163.125,16.3125 L163.125,152.25 L163.125,152.25 Z" id="Shape"></path>
                <path d="M106.020375,70.7146875 L149.520375,70.7146875 C151.026563,70.7146875 152.239125,69.4966875 152.239125,67.9959375 C152.239125,66.4951875 151.026563,65.2771875 149.520375,65.2771875 L106.020375,65.2771875 C104.525063,65.2771875 103.301625,66.4951875 103.301625,67.9959375 C103.301625,69.4966875 104.525063,70.7146875 106.020375,70.7146875 L106.020375,70.7146875 Z" id="Shape"></path>
                <path d="M106.020375,54.4021875 L149.520375,54.4021875 C151.026563,54.4021875 152.239125,53.1841875 152.239125,51.6834375 C152.239125,50.1826875 151.026563,48.9646875 149.520375,48.9646875 L106.020375,48.9646875 C104.525063,48.9646875 103.301625,50.1826875 103.301625,51.6834375 C103.301625,53.1841875 104.525063,54.4021875 106.020375,54.4021875 L106.020375,54.4021875 Z" id="Shape"></path>
                <path d="M106.020375,38.0896875 L149.520375,38.0896875 C151.026563,38.0896875 152.239125,36.8716875 152.239125,35.3709375 C152.239125,33.8701875 151.026563,32.6521875 149.520375,32.6521875 L106.020375,32.6521875 C104.525063,32.6521875 103.301625,33.8701875 103.301625,35.3709375 C103.301625,36.8716875 104.525063,38.0896875 106.020375,38.0896875 L106.020375,38.0896875 Z" id="Shape"></path>
                <path d="M89.71875,146.83425 L46.21875,146.83425 C44.718,146.83425 43.5,148.057687 43.5,149.553 C43.5,151.059187 44.718,152.27175 46.21875,152.27175 L89.71875,152.27175 C91.2140625,152.27175 92.4375,151.059187 92.4375,149.553 C92.4375,148.057687 91.2195,146.83425 89.71875,146.83425 L89.71875,146.83425 Z" id="Shape"></path>
                <path d="M89.71875,130.52175 L46.21875,130.52175 C44.718,130.52175 43.5,131.745187 43.5,133.2405 C43.5,134.746687 44.718,135.95925 46.21875,135.95925 L89.71875,135.95925 C91.2140625,135.95925 92.4375,134.746687 92.4375,133.2405 C92.4375,131.745187 91.2195,130.52175 89.71875,130.52175 L89.71875,130.52175 Z" id="Shape"></path>
                <path d="M89.71875,114.20925 L46.21875,114.20925 C44.718,114.20925 43.5,115.432688 43.5,116.928 C43.5,118.434188 44.718,119.64675 46.21875,119.64675 L89.71875,119.64675 C91.2140625,119.64675 92.4375,118.434188 92.4375,116.928 C92.4375,115.432688 91.2195,114.20925 89.71875,114.20925 L89.71875,114.20925 Z" id="Shape"></path>
                <path d="M149.53125,146.83425 L106.03125,146.83425 C104.525062,146.83425 103.3125,148.057687 103.3125,149.553 C103.3125,151.059187 104.525062,152.27175 106.03125,152.27175 L149.53125,152.27175 C151.026562,152.27175 152.25,151.059187 152.25,149.553 C152.25,148.057687 151.026562,146.83425 149.53125,146.83425 L149.53125,146.83425 Z" id="Shape"></path>
                <path d="M149.53125,130.52175 L106.03125,130.52175 C104.525062,130.52175 103.3125,131.745187 103.3125,133.2405 C103.3125,134.746687 104.525062,135.95925 106.03125,135.95925 L149.53125,135.95925 C151.026562,135.95925 152.25,134.746687 152.25,133.2405 C152.25,131.745187 151.026562,130.52175 149.53125,130.52175 L149.53125,130.52175 Z" id="Shape"></path>
                <path d="M149.53125,114.20925 L106.03125,114.20925 C104.525062,114.20925 103.3125,115.432688 103.3125,116.928 C103.3125,118.434188 104.525062,119.64675 106.03125,119.64675 L149.53125,119.64675 C151.026562,119.64675 152.25,118.434188 152.25,116.928 C152.25,115.432688 151.026562,114.20925 149.53125,114.20925 L149.53125,114.20925 Z" id="Shape"></path>
                <path d="M149.53125,81.58425 L46.21875,81.58425 C44.718,81.58425 43.5,82.80225 43.5,84.303 C43.5,85.80375 44.718,87.02175 46.21875,87.02175 L149.53125,87.02175 C151.026562,87.02175 152.25,85.80375 152.25,84.303 C152.25,82.80225 151.026562,81.58425 149.53125,81.58425 L149.53125,81.58425 Z" id="Shape"></path>
                <path d="M149.53125,97.89675 L46.21875,97.89675 C44.718,97.89675 43.5,99.1201875 43.5,100.6155 C43.5,102.121688 44.718,103.33425 46.21875,103.33425 L149.53125,103.33425 C151.026562,103.33425 152.25,102.121688 152.25,100.6155 C152.25,99.1201875 151.026562,97.89675 149.53125,97.89675 L149.53125,97.89675 Z" id="Shape"></path>
                <path d="M48.9375,70.6875 L87,70.6875 C90.0069375,70.6875 92.4375,68.2569375 92.4375,65.25 L92.4375,27.20925 C92.4375,24.2023125 90.0069375,21.77175 87,21.77175 L48.9375,21.77175 C45.9305625,21.77175 43.5,24.2023125 43.5,27.20925 L43.5,65.25 C43.5,68.2515 45.9305625,70.6875 48.9375,70.6875 L48.9375,70.6875 Z M54.375,32.625 L81.5625,32.625 L81.5625,59.8125 L54.375,59.8125 L54.375,32.625 L54.375,32.625 Z" id="Shape"></path>
            </g>
        </g>
    </g>
</svg>