<?xml version="1.0" encoding="UTF-8" standalone="no"?>
<svg width="512px" height="512px" viewBox="0 0 512 512" version="1.1" xmlns="http://www.w3.org/2000/svg" xmlns:xlink="http://www.w3.org/1999/xlink" xmlns:sketch="http://www.bohemiancoding.com/sketch/ns">
    <!-- Generator: Sketch 3.3.1 (12002) - http://www.bohemiancoding.com/sketch -->
    <title>store5</title>
    <desc>Created with Sketch.</desc>
    <defs></defs>
    <g id="Page-1" stroke="none" stroke-width="1" fill="none" fill-rule="evenodd" sketch:type="MSPage">
        <g id="store5" sketch:type="MSLayerGroup" fill="#D5D5D5">
            <path d="M0,208 C0,237.781 20.438,262.594 48,269.75 L48,480 L16,480 C7.187,480 0,487.156 0,496 C0,504.844 7.188,512 16,512 L496,512 C504.875,512 512,504.844 512,496 C512,487.156 504.875,480 496,480 L464,480 L464,269.75 C491.562,262.594 512,237.781 512,208 L512,192 L0,192 L0,208 L0,208 Z M320,272 C355.375,272 384,243.344 384,208 C384,237.781 404.438,262.594 432,269.75 L432,480 L192,480 L192,272 C227.375,272 256,243.344 256,208 C256,243.344 284.688,272 320,272 L320,272 Z M176,269.75 L176,480 L80,480 L80,269.75 C107.563,262.594 128,237.781 128,208 C128,237.781 148.438,262.594 176,269.75 L176,269.75 Z M448,48 L64,48 L0,176 L512,176 L448,48 L448,48 Z M135.188,83.563 L103.188,147.563 C101.75,150.376 98.938,152.001 96,152.001 C94.812,152.001 93.594,151.751 92.437,151.157 C88.499,149.188 86.874,144.376 88.874,140.438 L120.874,76.438 C122.874,72.5 127.655,70.907 131.593,72.844 C135.563,74.813 137.125,79.625 135.188,83.563 L135.188,83.563 Z M199.188,83.563 L167.188,147.563 C165.75,150.376 162.938,152.001 160,152.001 C158.812,152.001 157.594,151.751 156.437,151.157 C152.499,149.188 150.874,144.376 152.874,140.438 L184.874,76.438 C186.874,72.5 191.687,70.907 195.593,72.844 C199.563,74.813 201.125,79.625 199.188,83.563 L199.188,83.563 Z M264,144 C264,148.438 260.438,152 256,152 C251.594,152 248,148.437 248,144 L248,80 C248,75.562 251.594,72 256,72 C260.438,72 264,75.563 264,80 L264,144 L264,144 Z M355.875,151 C354.625,151.688 353.313,152 352,152 C349.188,152 346.438,150.5 345,147.844 L310,83.844 C307.875,79.969 309.312,75.094 313.188,73 C317.001,70.875 321.938,72.25 324.063,76.156 L359.063,140.156 C361.125,144.031 359.75,148.906 355.875,151 L355.875,151 Z M419.562,151.156 C418.438,151.75 417.25,152 416,152 C413.062,152 410.25,150.375 408.875,147.562 L376.875,83.562 C374.875,79.624 376.5,74.812 380.437,72.843 C384.312,70.874 389.187,72.468 391.187,76.437 L423.187,140.437 C425.125,144.375 423.562,149.188 419.562,151.156 L419.562,151.156 Z M136,386.438 L136,349.563 C131.312,346.751 128,341.875 128,336.001 C128,327.157 135.188,320.001 144,320.001 C152.875,320.001 160,327.157 160,336.001 C160,341.876 156.719,346.751 152,349.563 L152,386.438 C156.719,389.251 160,394.126 160,400.001 C160,408.845 152.875,416.001 144,416.001 C135.187,416.001 128,408.845 128,400.001 C128,394.125 131.313,389.25 136,386.438 L136,386.438 Z M64,16 C64,7.156 71.188,0 80,0 L432,0 C440.875,0 448,7.156 448,16 C448,24.844 440.875,32 432,32 L80,32 C71.188,32 64,24.844 64,16 L64,16 Z M280.438,357.656 L269.126,346.343 L314.376,301.093 L325.688,312.406 L280.438,357.656 L280.438,357.656 Z M280.438,402.906 L269.126,391.593 L359.626,301.093 L370.938,312.406 L280.438,402.906 L280.438,402.906 Z M359.625,346.344 L370.937,357.657 L325.687,402.907 L314.375,391.594 L359.625,346.344 L359.625,346.344 Z" id="Shape" sketch:type="MSShapeGroup"></path>
        </g>
    </g>
</svg>