<?xml version="1.0" encoding="UTF-8" standalone="no"?>
<svg width="55px" height="51px" viewBox="0 0 55 51" version="1.1" xmlns="http://www.w3.org/2000/svg" xmlns:xlink="http://www.w3.org/1999/xlink" xmlns:sketch="http://www.bohemiancoding.com/sketch/ns">
    <!-- Generator: Sketch 3.3.1 (12002) - http://www.bohemiancoding.com/sketch -->
    <title>medical8</title>
    <desc>Created with Sketch.</desc>
    <defs></defs>
    <g id="Page-1" stroke="none" stroke-width="1" fill="none" fill-rule="evenodd" sketch:type="MSPage">
        <g id="medical8" sketch:type="MSLayerGroup" transform="translate(-1.000000, 0.000000)" fill="#FFFFFF">
            <path d="M55.498,49.369 L43.156,38.228 C43.693,37.5 44.075,36.713 44.242,35.95 L44.264,35.803 C44.654,31.044 44.323,30.745 43.938,30.4 L17.923,6.91 C17.163,6.222 15.985,6.283 15.297,7.044 L14.33,8.114 L11.915,5.934 L12.384,5.413 C13.972,3.654 14.3,1.629 13.159,0.6 C12.019,-0.428 10.039,0.103 8.451,1.862 L2.451,8.504 C0.863,10.263 0.538,12.287 1.675,13.316 C2.817,14.345 4.797,13.815 6.385,12.056 L6.854,11.537 L9.269,13.718 L8.301,14.789 C7.615,15.55 7.675,16.727 8.435,17.414 L34.452,40.907 C35.589,41.931 39.961,40.659 40.005,40.643 C40.747,40.397 41.492,39.938 42.16,39.331 L54.501,50.474 C54.806,50.748 55.276,50.725 55.552,50.418 C55.826,50.118 55.804,49.647 55.498,49.369 L55.498,49.369 Z M42.231,35.618 C41.943,36.784 40.428,38.155 39.305,38.524 C38.122,38.917 36.368,39.112 35.751,39.077 L10.208,16.009 L11.174,14.94 C11.86,14.179 11.801,13 11.04,12.312 L6.692,8.387 L4.727,10.563 C4.116,11.239 3.541,11.508 3.243,11.583 C3.286,11.278 3.496,10.679 4.107,10.002 L10.107,3.358 C10.717,2.68 11.292,2.411 11.591,2.338 C11.549,2.641 11.339,3.241 10.727,3.919 L8.763,6.093 L13.111,10.02 C13.873,10.705 15.051,10.646 15.737,9.885 L16.705,8.814 L20.404,12.154 C20.369,12.181 20.333,12.197 20.303,12.232 L16.258,16.711 C15.983,17.014 16.007,17.484 16.312,17.76 C16.616,18.035 17.087,18.011 17.363,17.707 L21.407,13.227 C21.436,13.193 21.448,13.154 21.471,13.117 L22.523,14.066 C22.488,14.092 22.45,14.108 22.419,14.14 L19.372,17.516 C19.096,17.821 19.119,18.292 19.424,18.567 C19.73,18.843 20.2,18.817 20.477,18.513 L23.523,15.137 C23.554,15.104 23.567,15.067 23.588,15.029 L24.639,15.978 C24.606,16.003 24.567,16.019 24.538,16.052 L20.492,20.532 C20.218,20.836 20.241,21.306 20.546,21.581 C20.85,21.858 21.322,21.834 21.597,21.528 L25.641,17.05 C25.672,17.015 25.684,16.976 25.706,16.939 L26.758,17.887 C26.723,17.914 26.686,17.93 26.654,17.962 L25.39,19.362 C25.323,19.413 25.252,19.457 25.192,19.523 L21.927,23.113 C21.528,23.553 21.462,24.145 21.785,24.438 L33.684,35.45 L33.695,35.458 L34.21,35.928 C34.228,35.945 34.255,35.947 34.274,35.96 L36.561,37.939 C36.561,37.939 38.457,37.802 39.805,36.499 C41.414,34.938 41.172,32.868 41.172,32.868 L38.934,30.764 C38.928,30.759 38.926,30.75 38.922,30.746 L38.411,30.281 L27.037,19.756 L27.756,18.96 C27.786,18.926 27.799,18.889 27.821,18.851 L42.191,31.827 C42.638,33.211 42.666,33.871 42.231,35.618 L42.231,35.618 Z M37.03,35.72 C37.232,35.908 37.243,36.225 37.055,36.427 C36.955,36.531 36.823,36.586 36.688,36.586 C36.567,36.586 36.445,36.541 36.348,36.451 L24.829,25.74 C24.627,25.552 24.616,25.235 24.804,25.033 C24.993,24.832 25.309,24.82 25.511,25.008 L37.03,35.72 L37.03,35.72 Z" id="Shape" sketch:type="MSShapeGroup"></path>
        </g>
    </g>
</svg>